<svg xmlns="http://www.w3.org/2000/svg" style="display:none" id="rm-icons">
  <symbol id="icon-facebook" viewBox="0 0 24 24">
    <path d="M22 12a10 10 0 1 0-11.6 9.9v-7h-2v-3h2v-2.3c0-2 1.2-3.1 3-3.1 .9 0 1.8.1 1.8.1v2h-1c-1 0-1.3.6-1.3 1.2V12h2.4l-.4 3h-2v7A10 10 0 0 0 22 12z"/>
  </symbol>
  <symbol id="icon-twitter" viewBox="0 0 24 24">
    <path d="M22.46 6c-.77.35-1.6.59-2.46.69a4.2 4.2 0 0 0 1.85-2.31 8.27 8.27 0 0 1-2.63 1 4.14 4.14 0 0 0-7.06 3.77A11.75 11.75 0 0 1 3.15 4.6a4.13 4.13 0 0 0 1.28 5.52 4.08 4.08 0 0 1-1.87-.52v.05a4.15 4.15 0 0 0 3.32 4.06 4.18 4.18 0 0 1-1.86.07 4.16 4.16 0 0 0 3.88 2.88A8.32 8.32 0 0 1 2 19.54a11.77 11.77 0 0 0 6.29 1.85c7.55 0 11.68-6.26 11.68-11.68v-.53A8.18 8.18 0 0 0 22.46 6z"/>
  </symbol>
  <symbol id="icon-linkedin" viewBox="0 0 24 24">
    <path d="M4.98 3.5a2.5 2.5 0 1 1 0 5 2.5 2.5 0 0 1 0-5zM3 8.98h4v12H3v-12zm7.5 0h3.8v1.64h.06c.53-1 1.85-2.06 3.8-2.06 4.06 0 4.8 2.67 4.8 6.14v6.28h-4v-5.56c0-1.33-.03-3.04-1.85-3.04-1.85 0-2.13 1.45-2.13 2.95v5.65h-4v-12z"/>
  </symbol>
  <symbol id="icon-instagram" viewBox="0 0 24 24">
    <path d="M7 2C4.24 2 2 4.24 2 7v10c0 2.76 2.24 5 5 5h10c2.76 0 5-2.24 5-5V7c0-2.76-2.24-5-5-5H7zm10 2c1.65 0 3 1.35 3 3v10c0 1.65-1.35 3-3 3H7c-1.65 0-3-1.35-3-3V7c0-1.65-1.35-3 3-3h10zm-5 3a5 5 0 1 0 0 10 5 5 0 0 0 0-10zm0 2a3 3 0 1 1 0 6 3 3 0 0 1 0-6zm4.5-.5a1 1 0 1 0 0 2 1 1 0 0 0 0-2z"/>
  </symbol>
</svg>